<svg width="24" height="24" viewBox="0 0 24 24" fill="none" xmlns="http://www.w3.org/2000/svg">
<path d="M12 9.6H14.4V12H12V9.6Z" fill="white"/>
<path d="M2.4 19.2H4.8V21.6H2.4V19.2Z" fill="white"/>
<path d="M0 21.6H2.4V24H0V21.6Z" fill="white"/>
<path d="M14.4 7.2H16.8V9.6H14.4V7.2Z" fill="white"/>
<path d="M4.8 16.8H7.2V19.2H4.8V16.8Z" fill="white"/>
<path d="M16.8 4.8H19.2V7.2H16.8V4.8Z" fill="white"/>
<path d="M7.2 14.4H9.6V16.8H7.2V14.4Z" fill="white"/>
<path d="M19.2 2.4H21.6V4.8H19.2V2.4Z" fill="white"/>
<path d="M21.6 0H24V2.4H21.6V0Z" fill="white"/>
<path d="M9.6 12H12V14.4H9.6V12Z" fill="white"/>
<path d="M12 14.4H14.4V16.8H12V14.4Z" fill="white"/>
<path d="M2.4 4.8H4.8V7.2H2.4V4.8Z" fill="white"/>
<path d="M0 2.4H2.4V4.8H0V2.4Z" fill="white"/>
<path d="M14.4 16.8H16.8V19.2H14.4V16.8Z" fill="white"/>
<path d="M4.8 7.2H7.2V9.6H4.8V7.2Z" fill="white"/>
<path d="M16.8 19.2H19.2V21.6H16.8V19.2Z" fill="white"/>
<path d="M19.2 21.6H21.6V24H19.2V21.6Z" fill="white"/>
<path d="M7.2 9.6H9.6V12H7.2V9.6Z" fill="white"/>
<path d="M14.4 12H16.8V14.4H14.4V12Z" fill="white"/>
<path d="M4.8 2.4H7.2V4.8H4.8V2.4Z" fill="white"/>
<path d="M2.4 0H4.8V2.4H2.4V0Z" fill="white"/>
<path d="M16.8 14.4H19.2V16.8H16.8V14.4Z" fill="white"/>
<path d="M7.2 4.8H9.6V7.2H7.2V4.8Z" fill="white"/>
<path d="M19.2 16.8H21.6V19.2H19.2V16.8Z" fill="white"/>
<path d="M21.6 19.2H24V21.6H21.6V19.2Z" fill="white"/>
<path d="M9.6 7.2H12V9.6H9.6V7.2Z" fill="white"/>
</svg>
